<?xml version="1.0" standalone="no"?>
<!DOCTYPE svg PUBLIC "-//W3C//DTD SVG 20010904//EN"
 "http://www.w3.org/TR/2001/REC-SVG-20010904/DTD/svg10.dtd">
<svg version="1.0" xmlns="http://www.w3.org/2000/svg"
 width="833.000000pt" height="833.000000pt" viewBox="0 0 833.000000 833.000000"
 preserveAspectRatio="xMidYMid meet">
<metadata>
Created by potrace 1.11, written by Peter Selinger 2001-2013
</metadata>
<g transform="translate(0.000000,833.000000) scale(0.100000,-0.100000)"
fill="#000000" stroke="none">
<path d="M450 7160 l0 -520 185 0 c102 0 185 -4 185 -8 0 -4 74 -323 165 -707
91 -385 223 -944 293 -1242 70 -299 130 -543 133 -543 3 0 14 35 24 78 49 211
176 503 299 686 36 55 66 101 66 103 0 2 -40 43 -88 91 -194 191 -313 401
-357 635 -19 101 -19 295 0 385 15 74 58 197 77 219 8 10 5 33 -12 91 -63 210
17 416 161 414 59 -1 92 -25 149 -109 68 -99 194 -225 287 -286 115 -76 345
-183 377 -175 12 3 -8 105 -67 340 l-7 28 187 2 188 3 3 518 2 517 -1125 0
-1125 0 0 -520z"/>
<path d="M3320 7160 l0 -520 174 0 173 0 -42 -187 c-24 -104 -42 -189 -40
-191 1 -2 38 6 81 17 232 59 521 92 817 94 195 2 227 4 227 17 -1 8 -13 68
-29 133 l-28 117 173 0 174 0 0 520 0 520 -840 0 -840 0 0 -520z"/>
<path d="M5620 7160 l0 -520 191 0 c177 0 190 -1 185 -17 -3 -10 -17 -67 -31
-128 -14 -60 -28 -118 -31 -128 -5 -15 3 -14 68 9 244 87 433 214 563 379 27
33 54 64 62 68 81 48 193 3 212 -84 9 -40 -2 -177 -22 -273 -13 -64 -13 -73 4
-111 47 -106 72 -303 58 -461 -20 -236 -120 -455 -300 -664 l-71 -82 23 -31
c197 -267 319 -548 373 -862 7 -44 16 -73 20 -65 3 8 37 150 76 315 39 165 79
336 90 380 10 44 35 148 54 230 19 83 98 418 176 745 77 327 150 637 162 688
l21 92 184 0 183 0 0 520 0 520 -1125 0 -1125 0 0 -520z"/>
<path d="M1553 6653 c-24 -59 -14 -167 25 -243 l30 -61 -34 -52 c-19 -29 -47
-88 -61 -132 -24 -73 -27 -94 -27 -235 -1 -122 3 -170 18 -225 62 -229 208
-442 416 -605 44 -35 80 -65 80 -68 0 -2 -31 -45 -68 -95 -120 -162 -202 -307
-275 -492 -48 -121 -102 -311 -117 -415 l-12 -85 -157 -38 c-86 -22 -196 -51
-246 -67 -88 -27 -90 -29 -87 -56 2 -16 5 -30 7 -32 2 -2 45 8 95 22 89 26
363 96 374 96 3 0 6 -57 6 -126 0 -112 12 -242 26 -284 4 -12 7 -11 16 5 29
52 60 96 64 92 5 -5 7 -16 18 -108 l5 -47 -62 -22 c-113 -41 -292 -112 -300
-120 -11 -10 14 -62 27 -56 65 27 327 126 335 126 6 0 13 -12 17 -27 17 -80
68 -243 94 -300 17 -37 29 -67 28 -68 -2 -1 -45 -24 -95 -50 -51 -27 -93 -52
-93 -55 0 -4 9 -15 21 -26 20 -18 21 -18 52 0 45 27 293 156 299 156 3 0 11
-26 18 -57 63 -282 233 -561 470 -769 l95 -83 7 177 c4 97 11 193 15 212 l9
35 19 -70 c10 -39 40 -114 67 -167 124 -247 336 -448 623 -588 279 -136 524
-199 960 -245 l60 -6 -75 49 c-88 57 -209 154 -265 211 -21 23 -37 41 -35 41
3 0 28 -7 55 -15 28 -9 93 -18 145 -21 l95 -5 -59 33 c-82 45 -203 162 -249
239 -74 126 -99 264 -73 409 19 103 69 210 126 265 40 39 42 40 56 20 27 -36
46 -123 39 -173 -9 -60 -38 -127 -75 -174 l-30 -36 44 -59 c113 -153 308 -291
506 -358 171 -58 407 -76 559 -41 173 39 349 152 458 293 24 31 24 32 9 90
-25 99 -36 197 -36 315 l1 113 35 -40 c49 -56 122 -206 139 -290 31 -149 11
-358 -50 -508 -15 -38 -25 -71 -22 -74 11 -10 181 112 264 190 184 174 303
386 359 639 9 40 19 138 23 218 l6 145 45 -57 c25 -32 61 -87 81 -124 l37 -67
21 48 c31 71 68 193 92 307 17 79 22 139 23 260 1 136 3 157 16 153 8 -2 60
-16 115 -31 55 -14 144 -42 198 -61 l98 -34 30 21 c16 12 29 23 29 25 0 7
-199 67 -349 105 -113 29 -146 41 -152 56 -18 46 -40 127 -36 130 7 7 95 -62
154 -119 29 -28 54 -49 56 -46 3 4 11 40 32 148 l7 34 53 -7 c59 -7 293 -52
317 -61 10 -4 23 4 37 23 l21 30 -138 26 c-75 14 -165 28 -198 32 -34 3 -66 9
-72 13 -8 5 -9 32 -4 86 l7 80 115 -2 c63 -1 170 -7 238 -14 67 -6 124 -10
126 -8 3 2 7 16 11 30 6 25 4 27 -42 33 -26 3 -136 9 -244 12 l-195 7 -12 146
c-6 80 -21 192 -32 249 -59 296 -219 614 -412 820 l-41 44 39 31 c172 136 309
338 370 543 52 175 43 415 -22 566 -31 74 -32 81 -10 176 9 40 19 106 22 145
l6 72 -32 -40 c-233 -284 -617 -466 -1123 -530 -153 -20 -211 -17 -342 18
-251 67 -494 92 -805 84 -365 -10 -668 -62 -979 -168 l-116 -39 -171 0 c-480
0 -896 107 -1194 305 -99 67 -247 210 -306 295 -26 39 -51 70 -56 70 -5 0 -16
-17 -25 -37z m4707 -453 c0 -46 -138 -275 -203 -339 l-35 -33 -53 41 c-63 48
-212 131 -289 162 -73 29 -82 39 -38 39 99 0 408 67 548 118 65 24 70 25 70
12z m-3960 -144 c135 -90 297 -154 447 -177 l83 -12 -78 -81 c-42 -45 -103
-118 -135 -163 -32 -46 -64 -83 -70 -83 -16 0 -131 123 -182 195 -82 115 -147
254 -170 365 l-7 34 23 -17 c13 -10 53 -37 89 -61z m4264 1 c14 -95 8 -249
-14 -332 -56 -224 -226 -448 -457 -603 -93 -63 -152 -96 -159 -90 -2 3 -7 43
-10 91 -4 48 -10 87 -15 87 -11 0 -95 -95 -157 -179 -63 -84 -153 -234 -212
-350 -47 -94 -122 -280 -118 -292 2 -4 32 17 67 47 68 59 78 59 101 4 12 -28
10 -34 -27 -82 -48 -65 -103 -152 -103 -163 0 -4 28 19 63 52 34 33 75 68 90
78 35 22 31 27 91 -115 69 -164 71 -151 -26 -178 -46 -13 -107 -34 -136 -47
l-53 -24 -72 28 c-93 37 -211 67 -333 85 -53 8 -101 19 -106 24 -19 19 -98
155 -93 160 15 16 300 -40 425 -82 l45 -16 -30 26 c-79 67 -416 206 -552 229
l-42 7 40 -99 c41 -100 109 -320 109 -353 0 -12 24 -31 74 -59 90 -49 211
-143 288 -223 63 -65 148 -171 148 -186 0 -13 -79 -67 -156 -105 -146 -73
-343 -117 -524 -117 -103 0 -110 1 -180 36 -50 25 -95 59 -144 108 l-71 71
255 5 c229 4 244 6 145 12 -60 4 -181 11 -267 14 l-157 7 -30 61 c-16 34 -33
74 -37 89 l-7 28 74 -6 c274 -24 639 -75 723 -101 11 -4 18 -3 14 1 -26 28
-430 104 -758 142 -62 8 -65 9 -71 38 -10 48 -10 165 1 165 45 0 491 -106 613
-146 27 -9 51 -14 53 -11 11 11 -371 129 -559 173 -55 12 -101 25 -104 27 -9
10 35 94 63 121 86 83 208 73 360 -29 35 -24 64 -41 64 -38 0 13 -106 155
-160 215 l-61 68 -57 -32 c-127 -70 -252 -159 -337 -239 -39 -37 -41 -38 -90
-28 -99 19 -433 58 -557 65 -71 4 -128 9 -128 12 0 14 77 105 137 162 86 83
157 134 256 186 l79 41 -59 22 c-69 26 -146 74 -204 126 -47 43 -134 154 -144
184 -3 12 -10 21 -15 21 -13 0 17 -116 54 -207 l33 -83 -29 -18 c-92 -59 -232
-229 -297 -363 l-32 -66 -237 -6 c-130 -4 -238 -4 -240 -2 -3 2 4 37 13 77
111 453 474 809 929 907 53 12 99 21 103 22 5 0 -3 5 -17 11 -14 6 -95 13
-180 15 -246 8 -492 -30 -725 -114 -101 -36 -252 -109 -205 -99 77 17 257 37
307 34 l57 -3 -42 -27 c-65 -43 -177 -163 -237 -253 -103 -155 -168 -325 -196
-515 l-11 -77 -111 -12 c-62 -6 -174 -21 -250 -32 -77 -11 -141 -18 -143 -16
-6 5 14 100 33 160 8 27 12 51 9 54 -3 3 -46 -36 -96 -86 l-91 -92 7 38 c62
357 202 648 431 893 l53 56 -43 24 c-132 73 -276 198 -353 306 -54 76 -108
189 -131 274 -19 72 -23 282 -6 335 l10 30 21 -47 c80 -182 244 -340 448 -434
76 -35 244 -84 290 -84 13 0 24 -2 24 -4 0 -2 -17 -41 -39 -87 -40 -89 -96
-247 -89 -254 2 -3 18 14 34 38 97 136 304 352 434 452 242 185 503 310 775
371 153 35 448 44 613 20 362 -54 655 -197 875 -429 81 -85 83 -82 23 33 -59
113 -188 287 -309 417 l-58 62 38 -5 c255 -34 436 -86 638 -184 248 -120 508
-339 641 -540 15 -22 29 -38 32 -36 10 10 -42 155 -83 234 l-44 82 50 26 c187
94 363 250 474 420 22 33 43 56 46 50 4 -6 10 -33 13 -59z m-329 -994 c43 -43
151 -203 199 -295 124 -235 188 -529 168 -773 l-7 -90 -55 -7 c-99 -13 -317
-38 -328 -38 -6 0 -19 16 -28 35 -23 48 -15 154 15 214 34 66 105 136 163 161
l50 22 -7 81 c-10 119 -48 255 -99 357 -41 82 -128 211 -112 165 40 -112 76
-309 76 -419 l0 -81 -49 -32 c-67 -44 -101 -92 -132 -185 l-26 -80 -64 89
c-79 109 -243 274 -326 330 -70 46 -65 61 13 42 113 -29 266 19 344 108 72 82
86 182 39 290 -11 25 -18 47 -17 48 16 11 145 85 149 85 4 0 19 -12 34 -27z
m-261 -130 c39 -78 27 -156 -35 -227 -54 -61 -124 -90 -217 -89 -102 0 -106 8
-48 93 27 39 53 73 58 76 15 9 27 -7 53 -72 l24 -59 22 49 c13 30 23 79 26
126 l6 78 46 26 c25 14 47 26 48 26 1 0 9 -12 17 -27z m-133 -745 c66 -84 148
-213 190 -301 28 -58 30 -56 -97 -87 -52 -12 -93 -24 -92 -26 2 -2 46 3 98 11
126 19 126 19 138 -12 29 -75 41 -68 -145 -84 l-168 -14 143 -5 143 -5 -33
-19 c-18 -11 -57 -37 -86 -59 l-54 -39 -131 0 c-141 0 -141 0 52 -24 l44 -6
-60 -61 c-33 -34 -74 -81 -92 -104 -18 -24 -37 -43 -43 -43 -16 0 -96 66 -156
128 l-53 55 38 30 c21 16 97 89 168 161 128 129 235 269 235 307 0 25 -63 179
-96 237 -39 67 -15 49 57 -40z m-2795 -170 c-13 -44 -56 -253 -56 -275 0 -17
-7 -22 -37 -27 -21 -3 -111 -17 -201 -32 -90 -14 -166 -24 -168 -21 -11 11 -6
339 5 351 13 13 135 22 330 24 l133 2 -6 -22z m474 12 c166 -12 426 -38 453
-46 16 -5 12 -12 -25 -52 -24 -26 -61 -69 -83 -97 -22 -27 -44 -53 -50 -57 -5
-4 -73 -8 -150 -8 -77 0 -223 -7 -325 -14 -102 -8 -187 -12 -189 -10 -9 9 31
139 66 216 l36 78 61 0 c34 0 126 -5 206 -10z m-1122 -131 c2 -56 12 -140 21
-186 12 -58 14 -86 7 -89 -6 -2 -67 -17 -136 -33 -69 -16 -134 -33 -144 -37
-17 -7 -18 -4 -12 27 3 19 9 52 13 73 l6 40 -34 -24 c-19 -13 -65 -56 -104
-95 -38 -39 -78 -74 -87 -78 -19 -7 -22 -1 -39 93 -12 66 -19 334 -8 344 11
12 497 78 508 69 3 -2 7 -49 9 -104z m3368 55 c-3 -9 -27 -48 -53 -86 -45 -67
-48 -69 -80 -63 -36 6 -52 -4 -85 -54 -25 -36 -23 -41 12 -34 18 3 30 1 30 -5
0 -11 -139 -142 -151 -142 -6 0 -86 105 -111 145 -5 8 8 9 45 4 29 -3 53 -5
55 -4 2 2 -9 26 -23 55 l-26 52 -70 -4 -69 -4 -68 70 -67 69 105 -6 c58 -3
142 -15 188 -27 80 -21 84 -21 135 -4 42 14 195 49 231 53 4 1 5 -6 2 -15z
m810 -146 c-11 -73 -26 -108 -46 -108 -9 0 -42 11 -71 24 -30 13 -65 27 -78
31 -21 7 -23 5 -19 -18 3 -14 0 -28 -6 -30 -12 -4 -76 -1 -80 5 -14 15 -45
103 -39 109 5 4 76 12 158 17 83 5 158 10 169 11 16 1 18 -4 12 -41z m-2806
-93 c0 -4 -110 -199 -126 -223 -1 -2 -73 -14 -160 -27 -164 -25 -315 -52 -348
-62 -18 -5 -19 0 -14 126 3 73 8 134 11 137 8 9 265 34 432 43 88 4 170 9 183
10 12 0 22 -1 22 -4z m449 -296 c84 -92 160 -152 248 -199 35 -19 65 -41 67
-49 27 -90 37 -374 18 -489 -5 -29 -6 -55 -2 -57 8 -5 104 93 157 161 46 60
128 215 138 262 3 17 10 32 14 32 4 0 20 -13 35 -29 l28 -30 44 22 44 21 32
-31 31 -31 40 25 40 25 25 -25 c23 -24 24 -28 13 -71 -26 -105 -8 -223 46
-294 l26 -34 -41 -40 -40 -40 -30 22 -30 22 -37 -28 c-30 -23 -38 -25 -45 -13
-5 7 -15 23 -24 34 -14 20 -15 20 -47 1 l-32 -19 7 34 c4 19 9 93 12 164 l5
130 -23 -30 c-102 -136 -253 -249 -398 -300 l-37 -13 0 156 c0 87 -5 177 -10
202 -8 41 -12 46 -53 60 l-45 16 -14 76 -14 77 -46 6 c-25 4 -50 8 -55 9 -5 1
-21 33 -36 71 l-28 70 -60 -2 -60 -3 -33 51 -33 51 -85 -6 c-47 -4 -114 -14
-149 -22 -35 -7 -68 -14 -73 -14 -5 0 13 31 41 69 56 78 162 181 234 228 l49
32 56 -90 c31 -50 89 -126 130 -170z m2159 235 c2 -1 6 -40 9 -85 l6 -82 -29
6 c-16 3 -88 13 -161 23 -128 16 -131 17 -110 34 30 23 160 98 189 109 20 7
86 4 96 -5z m-3394 -121 c3 -65 9 -127 12 -139 5 -19 -6 -24 -138 -58 -79 -21
-153 -40 -165 -43 -27 -6 -41 24 -72 154 -34 145 -37 138 72 157 50 9 126 23
167 30 128 23 116 33 124 -101z m-494 -59 c16 -39 45 -101 65 -138 20 -37 35
-69 33 -71 -2 -2 -66 -26 -143 -53 -77 -27 -177 -63 -222 -80 -45 -17 -85 -28
-87 -23 -12 18 -27 250 -21 306 l6 61 142 36 c194 50 193 50 227 -38z m3759
-13 l146 -26 -2 -115 c-2 -63 -7 -140 -13 -170 -18 -93 -42 -190 -47 -190 -3
0 -28 20 -56 43 -29 24 -80 62 -113 85 l-61 41 -6 -197 c-4 -163 -10 -215 -30
-302 -38 -160 -108 -336 -161 -405 -14 -19 -15 -19 -27 15 -43 123 -155 286
-274 398 -47 45 -75 80 -75 93 0 37 39 174 71 250 72 170 194 335 339 456 85
71 55 69 309 24z m-2634 -38 c-30 -74 -55 -146 -55 -156 0 -9 30 -17 93 -26
340 -45 619 -263 723 -566 24 -69 28 -97 29 -205 l1 -124 77 -36 c42 -20 118
-47 169 -61 82 -21 113 -24 258 -23 185 1 259 15 393 77 l74 34 7 -84 c6 -78
4 -87 -16 -113 -61 -77 -209 -163 -338 -196 -87 -22 -312 -14 -415 14 -183 51
-309 121 -437 240 l-48 45 36 40 c85 94 104 220 50 332 -58 120 -212 236 -391
296 -90 30 -280 62 -342 57 -34 -3 -27 -6 62 -31 152 -42 297 -115 393 -197
l23 -19 -78 -78 c-43 -43 -93 -104 -111 -135 -99 -168 -116 -356 -51 -556 12
-35 19 -66 16 -68 -13 -13 -174 86 -241 148 -11 10 -23 18 -27 18 -10 0 1 -77
21 -138 l18 -53 -27 17 c-130 82 -279 238 -381 397 -23 37 -45 65 -48 63 -8
-9 19 -194 38 -264 10 -37 17 -68 15 -71 -7 -6 -126 112 -184 184 -166 205
-257 395 -293 611 l-13 78 -36 -55 c-46 -69 -113 -202 -129 -256 -7 -24 -16
-43 -19 -42 -11 1 -101 118 -144 187 -41 66 -117 243 -131 303 -5 25 -1 28 96
68 97 40 352 131 368 131 4 0 27 -26 51 -57 56 -76 132 -163 141 -163 4 0 -7
24 -26 53 -36 57 -96 172 -96 185 0 4 60 24 133 44 205 57 184 57 197 6 33
-129 110 -295 200 -428 57 -83 188 -235 197 -227 2 3 -18 33 -44 69 -59 78
-141 236 -177 341 -29 83 -66 245 -66 288 0 33 16 38 270 84 224 40 224 40
215 18z m1838 -60 c32 -43 34 -49 18 -55 -28 -10 -198 -21 -210 -13 -7 4 11
20 46 41 32 20 67 44 78 55 11 10 23 19 26 19 4 0 23 -21 42 -47z m-1440 -100
l25 -47 62 -1 62 0 25 -60 c14 -33 27 -62 30 -65 2 -2 27 -7 56 -10 l52 -5 7
-45 c15 -87 16 -89 62 -101 40 -10 44 -14 50 -47 3 -21 6 -66 5 -102 l0 -65
-35 69 c-47 94 -109 179 -185 253 -102 99 -189 156 -321 209 -47 19 -76 35
-68 38 13 5 103 21 136 25 6 0 22 -20 37 -46z m1521 -65 c-16 -119 -72 -254
-149 -363 -68 -96 -101 -118 -75 -50 17 44 31 203 24 271 -8 76 -21 81 -70 29
l-32 -35 -35 41 -34 41 -41 -23 -41 -24 -30 29 c-31 30 -31 30 -66 13 -20 -9
-40 -17 -46 -17 -10 0 -58 50 -59 61 0 7 167 52 190 51 223 -12 313 -12 380 1
41 8 78 15 83 16 4 0 5 -18 1 -41z m-3569 -174 c-1 -5 -128 -64 -131 -61 -5 5
72 164 99 201 l22 31 5 -85 c3 -47 6 -86 5 -86z m2835 131 c0 -6 -9 -46 -19
-88 -25 -95 -82 -212 -133 -268 l-38 -44 6 50 c9 66 9 236 0 305 l-7 55 96 1
c67 1 95 -3 95 -11z m658 -407 c-10 -74 -42 -188 -69 -240 -60 -117 -355 -207
-589 -179 -88 11 -234 52 -253 71 -20 19 8 48 88 89 59 29 110 66 165 118 63
59 80 71 80 54 0 -33 -39 -128 -75 -181 -40 -60 -28 -64 43 -15 48 33 51 34
57 14 7 -20 7 -20 43 1 39 23 42 22 72 -29 6 -12 16 -8 48 17 22 18 43 32 48
32 4 0 20 -12 35 -26 l27 -26 79 79 c79 78 130 148 174 235 13 26 27 48 30 48
3 0 2 -28 -3 -62z"/>
<path d="M4081 5829 c-344 -40 -728 -224 -990 -476 l-66 -62 223 -1 223 0 -21
28 c-31 42 -18 76 59 152 133 131 391 259 686 341 l100 27 -70 0 c-38 0 -103
-4 -144 -9z"/>
<path d="M5290 5663 c181 -264 174 -246 160 -412 -12 -137 -38 -310 -64 -424
-27 -116 -4 -75 60 108 48 136 93 324 101 416 l6 76 -94 94 c-102 102 -195
180 -169 142z"/>
<path d="M4622 5583 c-74 -76 -182 -207 -202 -243 -31 -57 167 -317 356 -470
81 -65 224 -159 269 -178 30 -13 30 -13 -5 15 -208 165 -359 345 -452 539
l-41 84 18 48 c21 54 71 154 115 230 18 28 28 52 24 52 -4 0 -41 -35 -82 -77z"/>
<path d="M4095 5510 c-28 -16 -61 -41 -75 -55 l-23 -25 38 -56 c64 -92 165
-204 265 -291 51 -46 95 -81 97 -79 2 2 -21 39 -52 82 -85 118 -129 217 -193
431 l-7 22 -50 -29z"/>
<path d="M5658 5508 c4 -18 7 -89 7 -158 -1 -99 -5 -139 -23 -195 -12 -38 -20
-71 -18 -73 5 -4 65 96 99 163 13 28 34 81 46 119 20 66 20 70 4 88 -20 22
-107 88 -117 88 -3 0 -2 -15 2 -32z"/>
<path d="M3640 5252 c0 -5 17 -21 38 -35 20 -14 59 -46 87 -70 l50 -45 -39
-42 c-21 -23 -50 -67 -63 -97 -61 -133 6 -295 156 -377 139 -75 325 -69 456
15 58 38 66 38 213 -1 58 -16 108 -28 109 -26 11 11 -120 171 -221 271 -208
206 -431 335 -673 390 -38 8 -78 17 -90 20 -13 3 -23 1 -23 -3z m387 -300 c0
-92 12 -139 55 -212 l32 -55 8 63 c9 78 14 94 39 126 24 31 62 34 102 7 28
-18 107 -115 107 -131 0 -16 -84 -83 -129 -103 -66 -30 -187 -30 -256 1 -99
45 -154 124 -155 220 0 106 75 178 171 164 26 -4 26 -5 26 -80z"/>
<path d="M4689 4658 c11 -18 25 -52 32 -75 11 -40 15 -43 78 -64 36 -12 131
-49 211 -81 80 -33 152 -62 160 -65 29 -11 -98 84 -206 154 -112 72 -270 163
-285 163 -5 0 0 -15 10 -32z"/>
<path d="M4375 4499 c-71 -22 -236 -40 -345 -38 l-115 3 -92 -94 c-51 -52 -93
-96 -93 -97 0 -8 98 -1 180 13 111 19 214 51 319 100 73 34 211 112 211 120 0
7 -33 3 -65 -7z"/>
<path d="M4838 3493 c7 -3 16 -2 19 1 4 3 -2 6 -13 5 -11 0 -14 -3 -6 -6z"/>
<path d="M6095 4590 c-40 -42 -112 -87 -176 -110 l-54 -19 45 0 c68 -1 123 15
221 63 l88 44 -37 26 c-21 14 -43 26 -48 26 -6 0 -23 -14 -39 -30z"/>
<path d="M1815 2724 c-28 -15 -54 -30 -58 -34 -4 -4 26 -151 68 -326 41 -175
150 -640 243 -1031 l167 -713 623 0 c535 0 622 2 622 14 0 8 33 160 74 338 41
178 77 339 81 358 l6 36 -129 43 c-314 103 -603 285 -780 489 l-54 62 -30 -21
c-16 -12 -49 -24 -73 -27 -56 -6 -98 19 -217 125 -207 186 -366 416 -450 648
-12 36 -27 65 -33 65 -6 0 -33 -12 -60 -26z"/>
<path d="M6490 2498 c-26 -14 -46 -18 -77 -14 -38 5 -43 3 -43 -14 0 -27 -54
-195 -86 -267 -69 -156 -179 -309 -313 -435 -136 -128 -308 -238 -372 -238
-69 0 -139 70 -139 138 0 18 11 59 25 92 14 33 25 64 25 70 0 5 -40 -17 -90
-49 -188 -124 -403 -175 -640 -152 -58 6 -119 13 -137 17 l-31 6 18 -83 c11
-46 40 -174 65 -284 25 -110 69 -305 98 -432 l52 -233 620 0 620 0 148 633
c82 347 182 773 223 946 41 172 74 315 72 316 -2 2 -19 -6 -38 -17z"/>
</g>
</svg>
